<svg width="50" height="50" viewBox="0 0 50 50" fill="none" xmlns="http://www.w3.org/2000/svg">
<g clip-path="url(#clip0_8_57)">
<path d="M27.7526 39.2147C27.7526 38.0105 26.9592 36.9882 25.8678 36.6428C25.5538 32.1953 21.8347 28.6726 17.3086 28.6726H12.9892L12.3108 18.866H37.0412L35.5002 13.9627H33.8284L32.7496 10.6284H25.0068V5.47538L29.1856 4.50028C30.1896 4.266 30.8908 3.38241 30.8908 2.35146V2.25448C30.8908 1.57255 30.5831 0.940034 30.0468 0.518941C29.5104 0.0979455 28.8228 -0.0506871 28.1605 0.111129L20.5938 1.96073V10.6286H12.851L11.7722 13.9629H10.1004L8.55936 18.8662H10.8363L11.5147 28.6728H10.4439C5.91766 28.6728 2.19882 32.1954 1.88466 36.643C0.793358 36.9882 0 38.0106 0 39.2147C0 39.9866 0.326074 40.6839 0.847752 41.176C0.326074 41.6681 0 42.3653 0 43.1373C0 44.3479 0.801756 45.3747 1.90214 45.7146C2.20576 48.1015 4.2495 49.9528 6.71747 49.9528H21.0351C23.5032 49.9528 25.5468 48.1015 25.8504 45.7146C26.9508 45.3746 27.7526 44.3479 27.7526 43.1373C27.7526 42.3653 27.4265 41.6681 26.9048 41.176C27.4265 40.6839 27.7526 39.9866 27.7526 39.2147ZM22.0648 3.11552L28.5096 1.54013C28.7304 1.48613 28.9596 1.53574 29.1384 1.67607C29.3172 1.8164 29.4198 2.02734 29.4198 2.25458V2.35155C29.4198 2.69521 29.186 2.98964 28.8514 3.06786L23.5359 4.30809V10.6286H22.0649V3.11552H22.0648ZM13.9211 12.0995H31.6796L32.2824 13.9628H13.3183L13.9211 12.0995ZM10.5636 17.3951L11.18 15.4338H34.4205L35.0369 17.3951H10.5636ZM10.444 30.1436H17.3087C20.9806 30.1436 24.0115 32.9419 24.3807 36.5179H3.37197C3.7412 32.9419 6.77206 30.1436 10.444 30.1436ZM2.69677 44.3631C2.0208 44.3631 1.47099 43.8132 1.47099 43.1373C1.47099 42.4613 2.02089 41.9115 2.69677 41.9115H3.5123L6.98055 44.3632H2.69677V44.3631ZM12.7002 43.9488L10.8216 45.2768L6.06073 41.9115H9.81805L12.7002 43.9488ZM12.3664 41.9115H21.888L17.1271 45.2768L12.3664 41.9115ZM21.0351 48.4819H6.71747C5.10448 48.4819 3.75146 47.3472 3.41474 45.8342H9.0617L10.8216 47.0781L13.9744 44.8495L17.1273 47.0781L18.8872 45.8342H24.3379C24.0011 47.3472 22.6481 48.4819 21.0351 48.4819ZM25.0558 44.3631H20.9681L24.4365 41.9114H25.0557C25.7317 41.9114 26.2815 42.4613 26.2815 43.1372C26.2816 43.8133 25.7318 44.3631 25.0558 44.3631ZM25.0558 40.4405H2.69677C2.0208 40.4405 1.47099 39.8907 1.47099 39.2148C1.47099 38.5388 2.02089 37.989 2.69677 37.989H25.0558C25.7318 37.989 26.2816 38.5388 26.2816 39.2148C26.2816 39.8907 25.7318 40.4405 25.0558 40.4405Z" fill="#ED1D25"/>
<path d="M48.9348 28.6726V19.2582H44.5218V22.4944H40.1088V20.3369H35.6958V22.4944H34.2739V20.3369H29.8609V28.6726H28.1093L30.427 49.9528H47.6821L49.9998 28.6726H48.9348ZM45.9929 20.7292H47.4639V28.6726H45.9929V20.7292ZM43.0509 23.9655H44.5219V31.4697L43.4158 34.5566H43.0509V23.9655ZM40.1089 23.9655H41.5799V34.5566H40.1089V23.9655ZM37.1669 21.8079H38.6379V34.5566H37.1669V21.8079ZM34.274 23.9655H35.6959V34.5566H34.6936L34.274 33.3855V23.9655ZM31.332 21.8079H32.803V29.2803L32.5852 28.6726H31.332V21.8079ZM46.3627 48.4819H31.7466L29.7494 30.1437H31.5498L33.6582 36.0276H44.4513L46.5597 30.1437H48.3601L46.3627 48.4819Z" fill="#ED1D25"/>
<path d="M32.03 37.4985L33.0661 47.0109H45.0433L46.0792 37.4985H32.03ZM43.7239 45.5399H34.3855L33.6699 38.9695H44.4394L43.7239 45.5399Z" fill="#ED1D25"/>
<path d="M10.1498 31.7125H8.67877V33.1835H10.1498V31.7125Z" fill="#ED1D25"/>
<path d="M13.1242 32.5952H11.6532V34.0661H13.1242V32.5952Z" fill="#ED1D25"/>
<path d="M16.0995 32.5952H14.6285V34.0661H16.0995V32.5952Z" fill="#ED1D25"/>
<path d="M19.0738 31.7125H17.6028V33.1835H19.0738V31.7125Z" fill="#ED1D25"/>
<path d="M22.4227 20.337H14.6755V21.808H22.4227V20.337Z" fill="#ED1D25"/>
<path d="M25.8405 20.337H23.8937V21.808H25.8405V20.337Z" fill="#ED1D25"/>
<path d="M39.8392 41.5192H38.3682V42.9902H39.8392V41.5192Z" fill="#ED1D25"/>
<path d="M42.6831 41.5192H41.3102V42.9902H42.6831V41.5192Z" fill="#ED1D25"/>
<path d="M36.8973 41.5192H35.4263V42.9902H36.8973V41.5192Z" fill="#ED1D25"/>
</g>
<defs>
<clipPath id="clip0_8_57">
<rect width="50" height="50" fill="white"/>
</clipPath>
</defs>
</svg>
