<svg width="51" height="50" viewBox="0 0 51 50" fill="none" xmlns="http://www.w3.org/2000/svg">
<g clip-path="url(#clip0_8_163)">
<path d="M49.28 23.5358C49.28 23.46 49.28 23.385 49.2875 23.3108C49.2925 23.21 49.2975 23.1075 49.2975 23.0058C49.2968 22.1879 49.0652 21.3869 48.6292 20.6948C48.1933 20.0028 47.5708 19.4479 46.8333 19.0942C46.2859 18.8308 45.8434 18.3904 45.5775 17.8442C45.2241 17.1048 44.6689 16.4805 43.9759 16.0431C43.2828 15.6058 42.4803 15.3733 41.6608 15.3725C41.5408 15.3725 41.4333 15.3725 41.3358 15.3842C40.7299 15.4294 40.1265 15.2694 39.6225 14.93C39.1359 14.5972 38.5864 14.3673 38.0077 14.2546C37.4291 14.1418 36.8335 14.1485 36.2575 14.2742C33.9775 11.5217 31.07 10 28 10C26.7123 9.99597 25.4302 10.1681 24.1892 10.5117C24.543 8.66225 25.3174 6.91898 26.4525 5.41666C26.8297 4.93803 27.069 4.36544 27.1445 3.76072C27.2201 3.15601 27.129 2.54215 26.8811 1.98544C26.6332 1.42873 26.2379 0.950326 25.7379 0.601881C25.2379 0.253437 24.6523 0.0481978 24.0442 0.00832775C23.517 -0.0335834 22.9875 0.0546044 22.5024 0.265145C22.0172 0.475686 21.5912 0.802138 21.2617 1.21583C20.6197 2.01601 20.0519 2.87287 19.565 3.77583C17.1533 2.01083 13.9817 1.68666 12.1767 1.66749C10.1582 1.66197 8.14908 1.94225 6.20917 2.49999C5.69924 2.6397 5.2611 2.96725 4.98283 3.41682C4.70456 3.86638 4.60678 4.40462 4.70917 4.92333C5.16997 7.36633 6.06556 9.70677 7.35333 11.8333C3.16667 14.7208 0.5 20.5833 0.5 27.0833C0.5 36.5 6.1075 44.1667 13 44.1667C15.1194 44.1965 17.2149 43.7167 19.11 42.7675C19.5395 42.5473 20.0153 42.4325 20.4979 42.4325C20.9806 42.4325 21.4563 42.5473 21.8858 42.7675C23.7824 43.717 25.8793 44.1968 28 44.1667C28.8453 44.1633 29.6862 44.0458 30.5 43.8175V47.7717C30.4989 48.181 30.6108 48.5826 30.8235 48.9323C31.0361 49.282 31.3412 49.5663 31.705 49.7536C32.0689 49.941 32.4775 50.0243 32.8857 49.9942C33.2939 49.9642 33.6858 49.822 34.0183 49.5833L37.1667 47.3333L40.3142 49.5833C40.6469 49.8213 41.0388 49.9629 41.4468 49.9926C41.8548 50.0223 42.263 49.9389 42.6267 49.7517C42.9904 49.5644 43.2955 49.2806 43.5083 48.9313C43.7212 48.582 43.8337 48.1807 43.8333 47.7717V39.0358C44.5892 38.6035 45.1957 37.9516 45.5725 37.1667C45.8359 36.6192 46.2763 36.1767 46.8225 35.9108C47.5619 35.5574 48.1862 35.0022 48.6236 34.3092C49.0609 33.6162 49.2934 32.8136 49.2942 31.9942C49.2942 31.8742 49.2942 31.7667 49.2825 31.6692C49.2363 31.0638 49.3961 30.4606 49.7358 29.9575C50.2326 29.2361 50.4991 28.381 50.5001 27.5051C50.5012 26.6291 50.2367 25.7735 49.7417 25.0508C49.4371 24.6046 49.276 24.0761 49.28 23.5358ZM22.5592 2.26249C22.843 1.92428 23.2492 1.71211 23.6889 1.67231C24.1287 1.63251 24.5663 1.76831 24.9063 2.05006C25.2463 2.33181 25.461 2.73663 25.5035 3.17613C25.546 3.61563 25.413 4.05411 25.1333 4.39583C23.0743 7.22674 22.0292 10.6688 22.1667 14.1667C22.1614 14.4113 22.1034 14.6519 21.9965 14.8721C21.8897 15.0922 21.7365 15.2867 21.5475 15.4422C21.3586 15.5977 21.1383 15.7105 20.9017 15.773C20.6651 15.8355 20.4178 15.8461 20.1767 15.8042C19.7844 15.7116 19.4363 15.4862 19.1915 15.1661C18.9466 14.8461 18.8201 14.4511 18.8333 14.0483C18.8558 9.26749 20.1092 5.30166 22.5592 2.26249ZM6.66667 4.10333C8.45278 3.59381 10.301 3.33467 12.1583 3.33333C14.5359 3.25058 16.8759 3.9435 18.825 5.3075C18.109 7.02984 17.6299 8.84135 17.4008 10.6925C15.9807 10.2262 14.4947 9.99238 13 10C11.5417 10.0085 10.1049 10.3523 8.80083 11.005C7.60051 9.03637 6.76756 6.86618 6.3425 4.6C6.3218 4.49135 6.344 4.37892 6.40445 4.2863C6.4649 4.19369 6.55888 4.12811 6.66667 4.10333ZM28 42.5C26.143 42.5255 24.3066 42.1079 22.6433 41.2817C21.9797 40.9403 21.2442 40.7623 20.4979 40.7623C19.7516 40.7623 19.0161 40.9403 18.3525 41.2817C16.6906 42.1077 14.8557 42.5254 13 42.5C7.02667 42.5 2.16667 35.5833 2.16667 27.0833C2.16667 20.795 4.82083 15.1908 8.92917 12.8025C10.1596 12.0656 11.5657 11.6732 13 11.6667C14.4427 11.6582 15.8751 11.9088 17.2292 12.4067C17.195 12.9425 17.1692 13.4842 17.1667 14.0408C17.1479 14.489 17.2201 14.9364 17.379 15.3559C17.5378 15.7754 17.7801 16.1583 18.0911 16.4816C18.402 16.8049 18.7753 17.0618 19.1883 17.2369C19.6014 17.4119 20.0456 17.5014 20.4942 17.5C20.9324 17.5008 21.3665 17.4151 21.7716 17.2479C22.1767 17.0808 22.5448 16.8354 22.855 16.5257C23.1651 16.2161 23.4112 15.8484 23.579 15.4436C23.7469 15.0388 23.8333 14.6049 23.8333 14.1667C23.8333 13.54 23.8708 12.9392 23.925 12.3508C25.2343 11.8916 26.6126 11.6601 28 11.6667C29.2798 11.709 30.5358 12.0242 31.6839 12.5911C32.8321 13.1581 33.8459 13.9637 34.6575 14.9542C34.1553 15.2669 33.5681 15.4155 32.9775 15.3792C32.8767 15.3742 32.7742 15.3692 32.6725 15.3692C31.8546 15.3698 31.0535 15.6015 30.3615 16.0374C29.6695 16.4734 29.1146 17.0959 28.7608 17.8333C28.4975 18.3807 28.057 18.8232 27.5108 19.0892C26.7715 19.4426 26.1471 19.9978 25.7098 20.6908C25.2725 21.3838 25.04 22.1864 25.0392 23.0058C25.0376 23.1143 25.0415 23.2228 25.0508 23.3308C25.097 23.9368 24.9369 24.5406 24.5967 25.0442C24.0999 25.7656 23.8334 26.6207 23.8324 27.4966C23.8313 28.3725 24.0958 29.2282 24.5908 29.9508C24.8966 30.3961 25.0591 30.9241 25.0567 31.4642C25.0567 31.54 25.0567 31.615 25.0492 31.6892C25.0442 31.79 25.0392 31.8925 25.0392 31.9942C25.0395 32.8117 25.2707 33.6125 25.706 34.3045C26.1414 34.9965 26.7632 35.5516 27.5 35.9058C28.0474 36.1692 28.4899 36.6096 28.7558 37.1558C29.1329 37.9448 29.7413 38.6003 30.5 39.035V42.0758C29.6955 42.3532 28.8509 42.4965 28 42.5ZM42.1667 47.7717C42.1683 47.8752 42.1406 47.9771 42.0867 48.0656C42.0329 48.154 41.9552 48.2255 41.8625 48.2717C41.7721 48.32 41.6698 48.3417 41.5676 48.3342C41.4653 48.3267 41.3673 48.2903 41.285 48.2292L37.6517 45.63C37.5102 45.5288 37.3406 45.4743 37.1667 45.4743C36.9927 45.4743 36.8231 45.5288 36.6817 45.63L33.0475 48.23C32.9652 48.2908 32.8673 48.327 32.7652 48.3344C32.6631 48.3417 32.5611 48.32 32.4708 48.2717C32.3782 48.2255 32.3004 48.154 32.2466 48.0656C32.1928 47.9771 32.1651 47.8752 32.1667 47.7717V39.5942C32.3344 39.6164 32.5033 39.6287 32.6725 39.6308C32.7925 39.6308 32.9 39.6308 32.9975 39.6192C33.6034 39.5739 34.2069 39.7339 34.7108 40.0733C35.4323 40.5701 36.2873 40.8366 37.1633 40.8376C38.0392 40.8387 38.8949 40.5742 39.6175 40.0792C40.1314 39.7407 40.7419 39.5798 41.3558 39.6208C41.4567 39.6258 41.5592 39.6308 41.6608 39.6308C41.83 39.6287 41.9989 39.6164 42.1667 39.5942V47.7717ZM48.3633 29.0167C47.8082 29.8377 47.5482 30.8228 47.6258 31.8108C47.6308 31.8718 47.6325 31.933 47.6308 31.9942C47.6302 32.4988 47.4868 32.9929 47.2172 33.4195C46.9477 33.8461 46.563 34.1877 46.1075 34.405C45.2175 34.8364 44.499 35.5554 44.0683 36.4458C43.8263 36.9281 43.4477 37.3284 42.9798 37.5971C42.5118 37.8657 41.9752 37.9908 41.4367 37.9567C40.4594 37.8983 39.49 38.1617 38.6767 38.7067C38.2307 39.0114 37.703 39.1739 37.1628 39.1729C36.6227 39.1718 36.0956 39.0073 35.6508 38.7008C34.9241 38.2088 34.0659 37.9475 33.1883 37.9508C33.0772 37.9508 32.9661 37.955 32.855 37.9633C32.794 37.9683 32.7328 37.97 32.6717 37.9683C32.1671 37.9677 31.6729 37.8243 31.2463 37.5547C30.8197 37.2852 30.4781 36.9005 30.2608 36.445C29.8294 35.555 29.1104 34.8365 28.22 34.4058C27.7654 34.1889 27.3815 33.8477 27.1128 33.4216C26.8441 32.9955 26.7015 32.5021 26.7017 31.9983C26.7017 31.9233 26.7017 31.8492 26.7092 31.7742C26.7142 31.6725 26.7192 31.5708 26.7192 31.4683C26.7222 30.5924 26.4583 29.7363 25.9625 29.0142C25.6579 28.5683 25.4954 28.0407 25.4964 27.5008C25.4975 26.9608 25.662 26.4338 25.9683 25.9892C26.524 25.1674 26.7843 24.1814 26.7067 23.1925C26.7017 23.1318 26.7 23.0709 26.7017 23.01C26.7023 22.5054 26.8457 22.0112 27.1153 21.5847C27.3848 21.1581 27.7695 20.8164 28.225 20.5992C29.115 20.1678 29.8335 19.4487 30.2642 18.5583C30.5069 18.0767 30.8856 17.6768 31.3534 17.4082C31.8212 17.1397 32.3575 17.0142 32.8958 17.0475C33.8731 17.1058 34.8425 16.8424 35.6558 16.2975C36.1017 15.9929 36.6293 15.8304 37.1692 15.8314C37.7092 15.8324 38.2362 15.997 38.6808 16.3033C39.5016 16.8605 40.4879 17.121 41.4767 17.0417C41.54 17.0358 41.5967 17.0367 41.66 17.0367C42.1646 17.0373 42.6588 17.1807 43.0853 17.4503C43.5119 17.7198 43.8536 18.1045 44.0708 18.56C44.5022 19.45 45.2213 20.1685 46.1117 20.5992C46.5663 20.8161 46.9502 21.1573 47.2189 21.5834C47.4876 22.0095 47.6301 22.5029 47.63 23.0067C47.63 23.0817 47.6258 23.1558 47.6225 23.2308C47.6175 23.3325 47.6125 23.4342 47.6125 23.5367C47.6094 24.4126 47.8734 25.2687 48.3692 25.9908C48.6739 26.4368 48.8364 26.9645 48.8354 27.5047C48.8343 28.0448 48.6698 28.5719 48.3633 29.0167Z" fill="#ED1D25"/>
<path d="M37.1667 18.3333C35.3537 18.3333 33.5814 18.8709 32.0739 19.8782C30.5665 20.8854 29.3916 22.3171 28.6978 23.992C28.004 25.667 27.8224 27.5101 28.1761 29.2883C28.5298 31.0665 29.4029 32.6998 30.6849 33.9818C31.9668 35.2638 33.6002 36.1368 35.3783 36.4905C37.1565 36.8442 38.9996 36.6627 40.6746 35.9689C42.3496 35.2751 43.7812 34.1002 44.7885 32.5927C45.7957 31.0853 46.3333 29.313 46.3333 27.5C46.3305 25.0697 45.3638 22.7398 43.6453 21.0213C41.9269 19.3029 39.5969 18.3362 37.1667 18.3333ZM37.1667 35C35.6833 35 34.2333 34.5601 32.9999 33.736C31.7665 32.9119 30.8052 31.7406 30.2376 30.3701C29.6699 28.9997 29.5214 27.4917 29.8108 26.0368C30.1002 24.5819 30.8145 23.2456 31.8634 22.1967C32.9123 21.1478 34.2486 20.4335 35.7035 20.1441C37.1584 19.8547 38.6664 20.0032 40.0368 20.5709C41.4072 21.1385 42.5786 22.0998 43.4027 23.3332C44.2268 24.5666 44.6667 26.0166 44.6667 27.5C44.6645 29.4884 43.8736 31.3948 42.4675 32.8008C41.0615 34.2069 39.1551 34.9978 37.1667 35Z" fill="#ED1D25"/>
<path d="M39.8333 23.6666L35.41 29.565L34.4225 28.5775C34.2653 28.4257 34.0548 28.3417 33.8363 28.3436C33.6178 28.3455 33.4088 28.4331 33.2543 28.5876C33.0998 28.7421 33.0122 28.9511 33.0103 29.1696C33.0084 29.3881 33.0924 29.5986 33.2442 29.7558L34.9108 31.4225C35.0671 31.5788 35.279 31.6666 35.5 31.6666H35.5592C35.6784 31.6579 35.7944 31.6236 35.8992 31.5661C36.004 31.5086 36.0953 31.4292 36.1667 31.3333L41.1667 24.6666C41.2323 24.5791 41.2801 24.4795 41.3073 24.3735C41.3344 24.2675 41.3404 24.1571 41.325 24.0488C41.3095 23.9405 41.2728 23.8362 41.2171 23.7421C41.1613 23.6479 41.0876 23.5656 41 23.5C40.9125 23.4343 40.8128 23.3865 40.7068 23.3594C40.6008 23.3322 40.4905 23.3262 40.3822 23.3417C40.2738 23.3572 40.1696 23.3938 40.0754 23.4496C39.9813 23.5053 39.899 23.5791 39.8333 23.6666Z" fill="#ED1D25"/>
</g>
<defs>
<clipPath id="clip0_8_163">
<rect width="50" height="50" fill="white" transform="translate(0.5)"/>
</clipPath>
</defs>
</svg>
