<svg width="50" height="50" viewBox="0 0 50 50" fill="none" xmlns="http://www.w3.org/2000/svg">
<g clip-path="url(#clip0_8_252)">
<path d="M26.5625 23.4375C28.5712 23.4375 30.5348 22.8419 32.205 21.7259C33.8752 20.6099 35.1769 19.0237 35.9457 17.1679C36.7144 15.3121 36.9155 13.27 36.5236 11.2999C36.1317 9.32975 35.1644 7.52008 33.7441 6.0997C32.3237 4.67932 30.514 3.71204 28.5439 3.32015C26.5738 2.92827 24.5317 3.1294 22.6759 3.8981C20.8201 4.66681 19.2339 5.96856 18.1179 7.63874C17.0019 9.30893 16.4062 11.2725 16.4062 13.2813C16.4094 15.9739 17.4804 18.5554 19.3844 20.4594C21.2884 22.3634 23.8698 23.4344 26.5625 23.4375ZM26.5625 4.6875C28.2622 4.6875 29.9237 5.19152 31.3369 6.13581C32.7502 7.08011 33.8516 8.42227 34.5021 9.99257C35.1525 11.5629 35.3227 13.2908 34.9911 14.9578C34.6595 16.6248 33.8411 18.1561 32.6392 19.358C31.4373 20.5598 29.9061 21.3783 28.2391 21.7099C26.572 22.0415 24.8441 21.8713 23.2738 21.2208C21.7035 20.5704 20.3614 19.4689 19.4171 18.0557C18.4728 16.6425 17.9688 14.9809 17.9688 13.2813C17.9714 11.0029 18.8777 8.81858 20.4888 7.20752C22.0998 5.59647 24.2841 4.69019 26.5625 4.6875Z" fill="#ED1D25"/>
<path d="M25 15.625C25 15.4178 24.9177 15.2191 24.7712 15.0726C24.6247 14.9261 24.426 14.8438 24.2188 14.8438C24.0115 14.8438 23.8128 14.9261 23.6663 15.0726C23.5198 15.2191 23.4375 15.4178 23.4375 15.625C23.4401 16.3158 23.6715 16.9863 24.0955 17.5316C24.5196 18.0769 25.1124 18.4664 25.7812 18.6391V19.5312C25.7812 19.7385 25.8636 19.9372 26.0101 20.0837C26.1566 20.2302 26.3553 20.3125 26.5625 20.3125C26.7697 20.3125 26.9684 20.2302 27.1149 20.0837C27.2614 19.9372 27.3438 19.7385 27.3438 19.5312V18.6391C28.0137 18.4685 28.6078 18.0796 29.0321 17.5338C29.4564 16.988 29.6868 16.3163 29.6868 15.625C29.6868 14.9337 29.4564 14.262 29.0321 13.7162C28.6078 13.1704 28.0137 12.7815 27.3438 12.6109V9.59219C27.5805 9.72823 27.7773 9.92415 27.9144 10.1603C28.0516 10.3964 28.1242 10.6644 28.125 10.9375C28.125 11.1447 28.2073 11.3434 28.3538 11.4899C28.5003 11.6364 28.699 11.7188 28.9062 11.7188C29.1135 11.7188 29.3122 11.6364 29.4587 11.4899C29.6052 11.3434 29.6875 11.1447 29.6875 10.9375C29.6849 10.2467 29.4535 9.57624 29.0295 9.03091C28.6054 8.48558 28.0126 8.09613 27.3438 7.92344V7.03125C27.3438 6.82405 27.2614 6.62534 27.1149 6.47882C26.9684 6.33231 26.7697 6.25 26.5625 6.25C26.3553 6.25 26.1566 6.33231 26.0101 6.47882C25.8636 6.62534 25.7812 6.82405 25.7812 7.03125V7.92344C25.1113 8.09396 24.5172 8.48286 24.0929 9.02868C23.6686 9.57451 23.4382 10.2462 23.4382 10.9375C23.4382 11.6288 23.6686 12.3005 24.0929 12.8463C24.5172 13.3921 25.1113 13.781 25.7812 13.9516V16.9703C25.5445 16.8343 25.3477 16.6383 25.2106 16.4022C25.0734 16.1661 25.0008 15.8981 25 15.625ZM27.3438 14.2797C27.581 14.4152 27.7782 14.611 27.9153 14.8472C28.0525 15.0835 28.1247 15.3518 28.1247 15.625C28.1247 15.8982 28.0525 16.1665 27.9153 16.4028C27.7782 16.639 27.581 16.8348 27.3438 16.9703V14.2797ZM25 10.9375C25.0008 10.6644 25.0734 10.3964 25.2106 10.1603C25.3477 9.92415 25.5445 9.72823 25.7812 9.59219V12.2828C25.5445 12.1468 25.3477 11.9508 25.2106 11.7147C25.0734 11.4786 25.0008 11.2106 25 10.9375Z" fill="#ED1D25"/>
<path d="M48.0797 33.6235C47.5161 33.1961 46.8147 32.9917 46.1098 33.0494C45.4049 33.107 44.746 33.4227 44.2594 33.936L43.5336 34.6985C43.3869 34.504 43.2154 34.3296 43.0234 34.1797C42.4601 33.7523 41.7587 33.5478 41.0539 33.6054C40.3491 33.6631 39.6903 33.9789 39.2039 34.4922L35.625 38.25C35.0663 37.7691 34.3544 37.5031 33.6172 37.5H25.2578L25.0609 37.3688C23.6547 36.4528 22.0126 35.9652 20.3344 35.9652C18.6561 35.9652 17.0141 36.4528 15.6078 37.3688L15.4109 37.5H13.2812V35.9375C13.2812 35.7303 13.1989 35.5316 13.0524 35.3851C12.9059 35.2386 12.7072 35.1563 12.5 35.1563H1.5625C1.3553 35.1563 1.15659 35.2386 1.01007 35.3851C0.86356 35.5316 0.78125 35.7303 0.78125 35.9375V49.2188C0.78125 49.426 0.86356 49.6247 1.01007 49.7712C1.15659 49.9177 1.3553 50 1.5625 50H12.5C12.7072 50 12.9059 49.9177 13.0524 49.7712C13.1989 49.6247 13.2812 49.426 13.2812 49.2188V47.6563H15.3906C17.0026 48.6787 18.8724 49.2206 20.7812 49.2188H36.6734C37.7851 49.2173 38.8807 48.9529 39.8708 48.4473C40.8609 47.9417 41.7173 47.2091 42.3703 46.3094L48.6719 37.6008C49.1087 36.9907 49.2912 36.2345 49.1807 35.4923C49.0702 34.75 48.6754 34.0799 48.0797 33.6235ZM11.7188 48.4375H2.34375V36.7188H11.7188V48.4375ZM36.5398 39.5539L40.3359 35.5641C40.5582 35.33 40.8589 35.1861 41.1806 35.1598C41.5024 35.1336 41.8225 35.2269 42.0797 35.4219C42.2295 35.5352 42.3516 35.681 42.4367 35.8485L37.0984 41.4586C36.9101 41.6515 36.6896 41.8101 36.4469 41.9274C36.6232 41.5587 36.7223 41.1578 36.7383 40.7495C36.7543 40.3411 36.6868 39.9337 36.5398 39.5524V39.5539ZM47.407 36.6852L41.1039 45.3906C40.5964 46.0909 39.9305 46.6612 39.1605 47.055C38.3905 47.4487 37.5383 47.6548 36.6734 47.6563H20.7852C19.1027 47.6576 17.4577 47.1595 16.0586 46.225C15.9301 46.1397 15.7793 46.094 15.625 46.0938H13.2812V39.0625H15.6469C15.8012 39.0626 15.9521 39.0169 16.0805 38.9313L16.4711 38.6688C17.6196 37.9205 18.9609 37.5221 20.3316 37.5221C21.7024 37.5221 23.0437 37.9205 24.1922 38.6688L24.5828 38.9313C24.711 39.0167 24.8616 39.0624 25.0156 39.0625H33.6094C34.0238 39.0625 34.4212 39.2271 34.7142 39.5202C35.0073 39.8132 35.1719 40.2106 35.1719 40.625C35.1719 41.0394 35.0073 41.4369 34.7142 41.7299C34.4212 42.0229 34.0238 42.1875 33.6094 42.1875H25.7969C25.5897 42.1875 25.391 42.2698 25.2444 42.4163C25.0979 42.5629 25.0156 42.7616 25.0156 42.9688C25.0156 43.176 25.0979 43.3747 25.2444 43.5212C25.391 43.6677 25.5897 43.75 25.7969 43.75H35.4008C35.9301 43.7491 36.4537 43.6411 36.9402 43.4325C37.4266 43.2238 37.8658 42.9189 38.2313 42.536L45.3906 35.0102C45.6205 34.77 45.9328 34.6259 46.2647 34.607C46.5966 34.5881 46.9234 34.6958 47.179 34.9083C47.4346 35.1208 47.6002 35.4224 47.6422 35.7521C47.6842 36.0819 47.5996 36.4153 47.4055 36.6852H47.407Z" fill="#ED1D25"/>
<path d="M23.4375 26.1852V28.9063H21.875C21.7205 28.9063 21.5695 28.9521 21.4411 29.038C21.3126 29.1238 21.2125 29.2458 21.1534 29.3886C21.0943 29.5313 21.0788 29.6883 21.109 29.8399C21.1391 29.9914 21.2135 30.1306 21.3227 30.2399L26.0102 34.9273C26.1567 35.0738 26.3554 35.1561 26.5625 35.1561C26.7697 35.1561 26.9684 35.0738 27.1149 34.9273L31.8024 30.2399C31.9116 30.1306 31.986 29.9914 32.0161 29.8399C32.0462 29.6883 32.0308 29.5313 31.9717 29.3886C31.9125 29.2458 31.8124 29.1238 31.684 29.038C31.5555 28.9521 31.4045 28.9063 31.25 28.9063H29.6875V26.1852C32.8462 25.4205 35.6149 23.5242 37.4693 20.8553C39.3238 18.1864 40.1353 14.9302 39.7502 11.7032C39.3652 8.47619 37.8103 5.50236 35.3799 3.34476C32.9496 1.18715 29.8124 -0.00445557 26.5625 -0.00445557C23.3126 -0.00445557 20.1755 1.18715 17.7452 3.34476C15.3148 5.50236 13.7599 8.47619 13.3748 11.7032C12.9898 14.9302 13.8013 18.1864 15.6558 20.8553C17.5102 23.5242 20.2789 25.4205 23.4375 26.1852ZM26.5625 1.56251C29.4747 1.56922 32.28 2.65999 34.4318 4.62224C36.5836 6.5845 37.9277 9.27765 38.2021 12.1768C38.4766 15.076 37.6617 17.9736 35.9163 20.3047C34.171 22.6359 31.6201 24.2337 28.761 24.7867C28.5822 24.8206 28.4209 24.9157 28.3048 25.0558C28.1887 25.1958 28.1251 25.372 28.125 25.5539V29.6875C28.125 29.8947 28.2073 30.0934 28.3539 30.2399C28.5004 30.3864 28.6991 30.4688 28.9063 30.4688H29.3641L26.5625 33.2703L23.761 30.4688H24.2188C24.426 30.4688 24.6247 30.3864 24.7712 30.2399C24.9177 30.0934 25 29.8947 25 29.6875V25.5539C24.9999 25.372 24.9364 25.1958 24.8203 25.0558C24.7042 24.9157 24.5428 24.8206 24.3641 24.7867C21.5049 24.2337 18.9541 22.6359 17.2087 20.3047C15.4634 17.9736 14.6485 15.076 14.9229 12.1768C15.1974 9.27765 16.5415 6.5845 18.6933 4.62224C20.8451 2.65999 23.6504 1.56922 26.5625 1.56251Z" fill="#ED1D25"/>
</g>
<defs>
<clipPath id="clip0_8_252">
<rect width="50" height="50" fill="white"/>
</clipPath>
</defs>
</svg>
