<svg width="50" height="50" viewBox="0 0 50 50" fill="none" xmlns="http://www.w3.org/2000/svg">
<g clip-path="url(#clip0_8_274)">
<path d="M11.7188 16.4062H38.2812C38.7133 16.4062 39.0625 16.0562 39.0625 15.625V1.5625C39.0625 1.13125 38.7133 0.78125 38.2812 0.78125H11.7188C11.2867 0.78125 10.9375 1.13125 10.9375 1.5625V15.625C10.9375 16.0562 11.2867 16.4062 11.7188 16.4062ZM28.9062 14.8438H28.125V13.2812H26.5625V14.8438H23.4375V13.2812H21.875V14.8438H21.0938V12.5C21.0938 12.0695 21.4438 11.7188 21.875 11.7188H28.125C28.5562 11.7188 28.9062 12.0695 28.9062 12.5V14.8438ZM12.5 2.34375H25H37.5V14.8438H30.4688V12.5C30.4688 11.2078 29.4172 10.1562 28.125 10.1562H25H21.875C20.5828 10.1562 19.5312 11.2078 19.5312 12.5V14.8438H12.5V2.34375Z" fill="#ED1D25"/>
<path d="M1.12422 19.3969C1.25547 19.486 1.40859 19.5313 1.5625 19.5313C1.66094 19.5313 1.75938 19.5133 1.85234 19.4758L9.66484 16.3508C9.96172 16.2313 10.1562 15.9446 10.1562 15.625V1.56252C10.1562 1.30315 10.0273 1.06096 9.81328 0.915646C9.59766 0.769552 9.32422 0.740646 9.08516 0.83674L1.27266 3.96174C0.975781 4.08127 0.78125 4.36799 0.78125 4.68752V18.75C0.78125 19.0094 0.910156 19.2516 1.12422 19.3969ZM2.34375 5.21643L8.59375 2.71643V15.0961L2.34375 17.5961V5.21643Z" fill="#ED1D25"/>
<path d="M48.7273 3.96177L40.9148 0.836766C40.6758 0.741453 40.4023 0.769578 40.1867 0.915672C39.9727 1.06098 39.8438 1.30317 39.8438 1.56255V15.625C39.8438 15.9446 40.0383 16.2313 40.3352 16.3508L48.1477 19.4758C48.2406 19.5133 48.3391 19.5313 48.4375 19.5313C48.5914 19.5313 48.7445 19.486 48.8758 19.3969C49.0898 19.2516 49.2188 19.0094 49.2188 18.75V4.68755C49.2188 4.36802 49.0242 4.0813 48.7273 3.96177ZM47.6562 17.5961L41.4062 15.0961V2.71645L47.6562 5.21645V17.5961Z" fill="#ED1D25"/>
<path d="M21.875 5.46875V7.03125C21.875 8.75469 23.2766 10.1562 25 10.1562C26.7234 10.1562 28.125 8.75469 28.125 7.03125V5.46875C28.125 3.74531 26.7234 2.34375 25 2.34375C23.2766 2.34375 21.875 3.74531 21.875 5.46875ZM23.4375 5.46875C23.4375 4.60703 24.1383 3.90625 25 3.90625C25.8617 3.90625 26.5625 4.60703 26.5625 5.46875V7.03125C26.5625 7.89297 25.8617 8.59375 25 8.59375C24.1383 8.59375 23.4375 7.89297 23.4375 7.03125V5.46875Z" fill="#ED1D25"/>
<path d="M28.3906 33.6969C29.1922 32.8555 29.6875 31.7203 29.6875 30.4688V28.9062C29.6875 26.3211 27.5852 24.2188 25 24.2188C22.4148 24.2188 20.3125 26.3211 20.3125 28.9062V30.4688C20.3125 31.7203 20.8078 32.8555 21.6094 33.6969C19.0937 34.1867 17.1875 36.4055 17.1875 39.0625V42.1875C17.1875 42.6195 17.5367 42.9688 17.9688 42.9688H32.0312C32.4633 42.9688 32.8125 42.6195 32.8125 42.1875V39.0625C32.8125 36.4055 30.9062 34.1867 28.3906 33.6969ZM21.875 28.9062C21.875 27.1828 23.2766 25.7812 25 25.7812C26.7234 25.7812 28.125 27.1828 28.125 28.9062V30.4688C28.125 32.1922 26.7234 33.5938 25 33.5938C23.2766 33.5938 21.875 32.1922 21.875 30.4688V28.9062ZM31.25 41.4062H29.6875V38.2812H28.125V41.4062H21.875V38.2812H20.3125V41.4062H18.75V39.0625C18.75 36.9086 20.5023 35.1562 22.6562 35.1562H27.3438C29.4977 35.1562 31.25 36.9086 31.25 39.0625V41.4062Z" fill="#ED1D25"/>
<path d="M44.7969 39.9469C45.5984 39.1055 46.0938 37.9703 46.0938 36.7188V35.1562C46.0938 32.5711 43.9914 30.4688 41.4062 30.4688C38.8211 30.4688 36.7188 32.5711 36.7188 35.1562V36.7188C36.7188 37.9703 37.2141 39.1055 38.0156 39.9469C35.5 40.4367 33.5938 42.6555 33.5938 45.3125V48.4375C33.5938 48.8695 33.943 49.2188 34.375 49.2188H48.4375C48.8695 49.2188 49.2188 48.8695 49.2188 48.4375V45.3125C49.2188 42.6555 47.3125 40.4367 44.7969 39.9469ZM38.2812 35.1562C38.2812 33.4328 39.6828 32.0312 41.4062 32.0312C43.1297 32.0312 44.5312 33.4328 44.5312 35.1562V36.7188C44.5312 38.4422 43.1297 39.8438 41.4062 39.8438C39.6828 39.8438 38.2812 38.4422 38.2812 36.7188V35.1562ZM47.6562 47.6562H46.0938V44.5312H44.5312V47.6562H38.2812V44.5312H36.7188V47.6562H35.1562V45.3125C35.1562 43.1586 36.9086 41.4062 39.0625 41.4062H43.75C45.9039 41.4062 47.6562 43.1586 47.6562 45.3125V47.6562Z" fill="#ED1D25"/>
<path d="M11.9844 39.9469C12.7859 39.1055 13.2812 37.9703 13.2812 36.7188V35.1562C13.2812 32.5711 11.1789 30.4688 8.59375 30.4688C6.00859 30.4688 3.90625 32.5711 3.90625 35.1562V36.7188C3.90625 37.9703 4.40156 39.1055 5.20312 39.9469C2.6875 40.4367 0.78125 42.6555 0.78125 45.3125V48.4375C0.78125 48.8695 1.13047 49.2188 1.5625 49.2188H15.625C16.057 49.2188 16.4062 48.8695 16.4062 48.4375V45.3125C16.4062 42.6555 14.5 40.4367 11.9844 39.9469ZM5.46875 35.1562C5.46875 33.4328 6.87031 32.0312 8.59375 32.0312C10.3172 32.0312 11.7188 33.4328 11.7188 35.1562V36.7188C11.7188 38.4422 10.3172 39.8438 8.59375 39.8438C6.87031 39.8438 5.46875 38.4422 5.46875 36.7188V35.1562ZM14.8438 47.6562H13.2812V44.5312H11.7188V47.6562H5.46875V44.5312H3.90625V47.6562H2.34375V45.3125C2.34375 43.1586 4.09609 41.4062 6.25 41.4062H10.9375C13.0914 41.4062 14.8438 43.1586 14.8438 45.3125V47.6562Z" fill="#ED1D25"/>
<path d="M10.9375 21.0938H12.5V22.6562H10.9375V21.0938Z" fill="#ED1D25"/>
<path d="M13.2812 21.0938H14.8438V22.6562H13.2812V21.0938Z" fill="#ED1D25"/>
<path d="M15.625 21.0938H17.1875V22.6562H15.625V21.0938Z" fill="#ED1D25"/>
<path d="M17.1875 25.7812H17.9688C19.2609 25.7812 20.3125 24.7297 20.3125 23.4375V20.3125C20.3125 19.0203 19.2609 17.9688 17.9688 17.9688H10.1562C8.86406 17.9688 7.8125 19.0203 7.8125 20.3125V23.4375C7.8125 24.7297 8.86406 25.7812 10.1562 25.7812H13.0211L15.9375 27.9687C16.075 28.0727 16.2406 28.125 16.4062 28.125C16.525 28.125 16.6453 28.0977 16.7555 28.043C17.0203 27.9102 17.1875 27.6398 17.1875 27.3438V25.7812ZM16.4062 24.2188C15.9742 24.2188 15.625 24.5687 15.625 25V25.7812L13.75 24.375C13.6148 24.2734 13.4508 24.2188 13.2812 24.2188H10.1562C9.725 24.2188 9.375 23.868 9.375 23.4375V20.3125C9.375 19.882 9.725 19.5312 10.1562 19.5312H17.9688C18.4 19.5312 18.75 19.882 18.75 20.3125V23.4375C18.75 23.868 18.4 24.2188 17.9688 24.2188H16.4062Z" fill="#ED1D25"/>
<path d="M37.5 23.4375H39.0625V25H37.5V23.4375Z" fill="#ED1D25"/>
<path d="M35.1562 23.4375H36.7188V25H35.1562V23.4375Z" fill="#ED1D25"/>
<path d="M32.8125 23.4375H34.375V25H32.8125V23.4375Z" fill="#ED1D25"/>
<path d="M34.0625 18.1251C33.8258 17.9469 33.5086 17.918 33.2445 18.0508C32.9797 18.1836 32.8125 18.454 32.8125 18.75V20.3126H32.0312C30.7391 20.3126 29.6875 21.3641 29.6875 22.6563V25.7813C29.6875 27.0735 30.7391 28.125 32.0312 28.125H39.8438C41.1359 28.125 42.1875 27.0735 42.1875 25.7813V22.6563C42.1875 21.3641 41.1359 20.3126 39.8438 20.3126H36.9789L34.0625 18.1251ZM40.625 22.6563V25.7813C40.625 26.2126 40.275 26.5625 39.8438 26.5625H32.0312C31.6 26.5625 31.25 26.2126 31.25 25.7813V22.6563C31.25 22.2258 31.6 21.8751 32.0312 21.8751H33.5938C34.0258 21.8751 34.375 21.5251 34.375 21.0938V20.3126L36.25 21.7188C36.3852 21.8204 36.5492 21.8751 36.7188 21.8751H39.8438C40.275 21.8751 40.625 22.2258 40.625 22.6563Z" fill="#ED1D25"/>
</g>
<defs>
<clipPath id="clip0_8_274">
<rect width="50" height="50" fill="white"/>
</clipPath>
</defs>
</svg>
